<?xml version="1.0" encoding="UTF-8"?>
<svg width="40" height="40" viewBox="0 0 40 40" fill="none" xmlns="http://www.w3.org/2000/svg">
    <!-- Círculo externo -->
    <circle cx="20" cy="20" r="18" stroke="#2563eb" stroke-width="2"/>
    
    <!-- Engrenagem central -->
    <path d="M20 8C16.6863 8 14 10.6863 14 14C14 17.3137 16.6863 20 20 20C23.3137 20 26 17.3137 26 14C26 10.6863 23.3137 8 20 8Z" fill="#2563eb"/>
    
    <!-- Dentes da engrenagem -->
    <path d="M20 4L20 8" stroke="#2563eb" stroke-width="2" stroke-linecap="round"/>
    <path d="M20 32L20 36" stroke="#2563eb" stroke-width="2" stroke-linecap="round"/>
    <path d="M36 20L32 20" stroke="#2563eb" stroke-width="2" stroke-linecap="round"/>
    <path d="M8 20L4 20" stroke="#2563eb" stroke-width="2" stroke-linecap="round"/>
    <path d="M31.3137 8.68629L28.2426 11.7574" stroke="#2563eb" stroke-width="2" stroke-linecap="round"/>
    <path d="M11.7574 28.2426L8.68629 31.3137" stroke="#2563eb" stroke-width="2" stroke-linecap="round"/>
    <path d="M31.3137 31.3137L28.2426 28.2426" stroke="#2563eb" stroke-width="2" stroke-linecap="round"/>
    <path d="M11.7574 11.7574L8.68629 8.68629" stroke="#2563eb" stroke-width="2" stroke-linecap="round"/>
    
    <!-- Círculo central -->
    <circle cx="20" cy="20" r="4" fill="#2563eb"/>
</svg> 